# xmcd CD database file
#
# Track frame offsets:
#	150
#	13688
#	24419
#	38355
#	51786
#	53341
#	69202
#	80492
#	92875
#	104019
#	115978
#	130678
#	146096
#	158018
#	173977
#	176832
#
# Disc length: 2783 seconds
#
# Revision: 0
# Processed by: cddbd v1.4PL0 Copyright (c) Steve Scherf et al.
# Submitted via: CDex 1.50beta10
#
DISCID=ca0add10
DTITLE=Scott H Biram  - L0-Fi Mojo
DYEAR=2003
DGENRE=Blues
TTITLE0=Blues in the bottle
TTITLE1=single girl
TTITLE2=green onions/cold river
TTITLE3=titanic
TTITLE4=audio commentary
TTITLE5=mr tom hughes town
TTITLE6=throw a boogie
TTITLE7=spoonful
TTITLE8=you gotta move
TTITLE9=white house blues
TTITLE10=wreck my car
TTITLE11=truckdriver
TTITLE12=real cocaine blues
TTITLE13=pastures of plenty
TTITLE14=stickin to the union
TTITLE15=we shall be free
EXTD=YEAR: 2003
EXTT0=
EXTT1=
EXTT2=
EXTT3=
EXTT4=
EXTT5=
EXTT6=
EXTT7=
EXTT8=
EXTT9=
EXTT10=
EXTT11=
EXTT12=
EXTT13=
EXTT14=
EXTT15=
PLAYORDER=
